{
	"asset":{
		"generator":"Khronos glTF Blender I/O v3.6.27",
		"version":"2.0"
	},
	"scene":0,
	"scenes":[
		{
			"name":"Scene",
			"nodes":[
				0,
				1,
				2,
				3,
				4
			]
		}
	],
	"nodes":[
		{
			"mesh":0,
			"name":"Door_Mask.001",
			"rotation":[
				-1,
				0,
				0,
				4.371138828673793e-08
			],
			"scale":[
				0.06999999284744263,
				2,
				6
			]
		},
		{
			"mesh":1,
			"name":"Door_Right_Old",
			"rotation":[
				-0.3928474485874176,
				-0.3928474485874176,
				-0.5879378318786621,
				0.5879378318786621
			],
			"scale":[
				2,
				0.25,
				2
			],
			"translation":[
				0,
				1.850000023841858,
				0
			]
		},
		{
			"mesh":2,
			"name":"Door_Left_Old",
			"rotation":[
				-0.3928474485874176,
				-0.3928474485874176,
				-0.5879378318786621,
				0.5879378318786621
			],
			"scale":[
				2,
				0.25,
				2
			],
			"translation":[
				0,
				1.850000023841858,
				0.5
			]
		},
		{
			"mesh":3,
			"name":"MRIW_Design_Draft_1",
			"rotation":[
				0.5,
				0.5,
				-0.5,
				0.5
			],
			"scale":[
				6.150000095367432,
				5,
				5.569999694824219
			],
			"translation":[
				0.26887115836143494,
				1.9287666082382202,
				-1.112108826637268
			]
		},
		{
			"mesh":4,
			"name":"MRIW_Design_Draft_1.001",
			"rotation":[
				0.5,
				0.5,
				-0.5,
				0.5
			],
			"scale":[
				6.150000095367432,
				5,
				5.569999694824219
			],
			"translation":[
				-0.256840318441391,
				1.9287666082382202,
				-1.112108826637268
			]
		}
	],
	"materials":[
		{
			"doubleSided":true,
			"name":"Door_Right_Mat",
			"pbrMetallicRoughness":{
				"baseColorFactor":[
					0.7379106283187866,
					0.730461061000824,
					0.6938719749450684,
					1
				],
				"metallicFactor":0,
				"roughnessFactor":0.5
			}
		},
		{
			"doubleSided":true,
			"name":"Door_Left_Mat",
			"pbrMetallicRoughness":{
				"baseColorFactor":[
					0.7379106283187866,
					0.730461061000824,
					0.7011020183563232,
					1
				],
				"metallicFactor":0,
				"roughnessFactor":0.5
			}
		},
		{
			"alphaMode":"BLEND",
			"doubleSided":true,
			"name":"MRIW_Design_Draft_1",
			"pbrMetallicRoughness":{
				"baseColorTexture":{
					"index":0
				},
				"metallicFactor":0,
				"roughnessFactor":0.5
			}
		},
		{
			"alphaMode":"BLEND",
			"doubleSided":true,
			"name":"MRIW_Design_Draft_1.001",
			"pbrMetallicRoughness":{
				"baseColorTexture":{
					"index":1
				},
				"metallicFactor":0,
				"roughnessFactor":0.5
			}
		}
	],
	"meshes":[
		{
			"name":"Cube.001",
			"primitives":[
				{
					"attributes":{
						"POSITION":0,
						"NORMAL":1,
						"TEXCOORD_0":2
					},
					"indices":3
				}
			]
		},
		{
			"name":"Door_Right_Obj_Old",
			"primitives":[
				{
					"attributes":{
						"POSITION":4,
						"NORMAL":5,
						"TEXCOORD_0":6
					},
					"indices":7,
					"material":0
				}
			]
		},
		{
			"name":"Door_Left_Obj_Old",
			"primitives":[
				{
					"attributes":{
						"POSITION":8,
						"NORMAL":9,
						"TEXCOORD_0":10
					},
					"indices":11,
					"material":1
				}
			]
		},
		{
			"name":"MRIW_Design_Draft_1",
			"primitives":[
				{
					"attributes":{
						"POSITION":12,
						"NORMAL":13,
						"TEXCOORD_0":14
					},
					"indices":15,
					"material":2
				}
			]
		},
		{
			"name":"MRIW_Design_Draft_1.001",
			"primitives":[
				{
					"attributes":{
						"POSITION":16,
						"NORMAL":17,
						"TEXCOORD_0":18
					},
					"indices":15,
					"material":3
				}
			]
		}
	],
	"textures":[
		{
			"sampler":0,
			"source":0
		},
		{
			"sampler":0,
			"source":0
		}
	],
	"images":[
		{
			"bufferView":16,
			"mimeType":"image/png",
			"name":"MRIW_Design_Draft_1"
		}
	],
	"accessors":[
		{
			"bufferView":0,
			"componentType":5126,
			"count":56,
			"max":[
				1.0000001192092896,
				0.757131040096283,
				0.2450770139694214
			],
			"min":[
				-1.000000238418579,
				-0.7263631224632263,
				-0.2661181688308716
			],
			"type":"VEC3"
		},
		{
			"bufferView":1,
			"componentType":5126,
			"count":56,
			"type":"VEC3"
		},
		{
			"bufferView":2,
			"componentType":5126,
			"count":56,
			"type":"VEC2"
		},
		{
			"bufferView":3,
			"componentType":5123,
			"count":108,
			"type":"SCALAR"
		},
		{
			"bufferView":4,
			"componentType":5126,
			"count":84,
			"max":[
				-0.16223561763763428,
				1,
				0.6399065256118774
			],
			"min":[
				-2.0315780639648438,
				-1,
				-1.4272936582565308
			],
			"type":"VEC3"
		},
		{
			"bufferView":5,
			"componentType":5126,
			"count":84,
			"type":"VEC3"
		},
		{
			"bufferView":6,
			"componentType":5126,
			"count":84,
			"type":"VEC2"
		},
		{
			"bufferView":7,
			"componentType":5123,
			"count":156,
			"type":"SCALAR"
		},
		{
			"bufferView":8,
			"componentType":5126,
			"count":146,
			"max":[
				1,
				1,
				1
			],
			"min":[
				-0.8728654384613037,
				-1,
				-1.0672001838684082
			],
			"type":"VEC3"
		},
		{
			"bufferView":9,
			"componentType":5126,
			"count":146,
			"type":"VEC3"
		},
		{
			"bufferView":10,
			"componentType":5126,
			"count":146,
			"type":"VEC2"
		},
		{
			"bufferView":11,
			"componentType":5123,
			"count":396,
			"type":"SCALAR"
		},
		{
			"bufferView":12,
			"componentType":5126,
			"count":4,
			"max":[
				0.8999999761581421,
				0,
				0.5
			],
			"min":[
				-0.8999999761581421,
				0,
				-0.5
			],
			"type":"VEC3"
		},
		{
			"bufferView":13,
			"componentType":5126,
			"count":4,
			"type":"VEC3"
		},
		{
			"bufferView":14,
			"componentType":5126,
			"count":4,
			"type":"VEC2"
		},
		{
			"bufferView":15,
			"componentType":5123,
			"count":6,
			"type":"SCALAR"
		},
		{
			"bufferView":17,
			"componentType":5126,
			"count":4,
			"max":[
				0.8999999761581421,
				0,
				0.5
			],
			"min":[
				-0.8999999761581421,
				0,
				-0.5
			],
			"type":"VEC3"
		},
		{
			"bufferView":18,
			"componentType":5126,
			"count":4,
			"type":"VEC3"
		},
		{
			"bufferView":19,
			"componentType":5126,
			"count":4,
			"type":"VEC2"
		}
	],
	"bufferViews":[
		{
			"buffer":0,
			"byteLength":672,
			"byteOffset":0,
			"target":34962
		},
		{
			"buffer":0,
			"byteLength":672,
			"byteOffset":672,
			"target":34962
		},
		{
			"buffer":0,
			"byteLength":448,
			"byteOffset":1344,
			"target":34962
		},
		{
			"buffer":0,
			"byteLength":216,
			"byteOffset":1792,
			"target":34963
		},
		{
			"buffer":0,
			"byteLength":1008,
			"byteOffset":2008,
			"target":34962
		},
		{
			"buffer":0,
			"byteLength":1008,
			"byteOffset":3016,
			"target":34962
		},
		{
			"buffer":0,
			"byteLength":672,
			"byteOffset":4024,
			"target":34962
		},
		{
			"buffer":0,
			"byteLength":312,
			"byteOffset":4696,
			"target":34963
		},
		{
			"buffer":0,
			"byteLength":1752,
			"byteOffset":5008,
			"target":34962
		},
		{
			"buffer":0,
			"byteLength":1752,
			"byteOffset":6760,
			"target":34962
		},
		{
			"buffer":0,
			"byteLength":1168,
			"byteOffset":8512,
			"target":34962
		},
		{
			"buffer":0,
			"byteLength":792,
			"byteOffset":9680,
			"target":34963
		},
		{
			"buffer":0,
			"byteLength":48,
			"byteOffset":10472,
			"target":34962
		},
		{
			"buffer":0,
			"byteLength":48,
			"byteOffset":10520,
			"target":34962
		},
		{
			"buffer":0,
			"byteLength":32,
			"byteOffset":10568,
			"target":34962
		},
		{
			"buffer":0,
			"byteLength":12,
			"byteOffset":10600,
			"target":34963
		},
		{
			"buffer":0,
			"byteLength":3083965,
			"byteOffset":10612
		},
		{
			"buffer":0,
			"byteLength":48,
			"byteOffset":3094580,
			"target":34962
		},
		{
			"buffer":0,
			"byteLength":48,
			"byteOffset":3094628,
			"target":34962
		},
		{
			"buffer":0,
			"byteLength":32,
			"byteOffset":3094676,
			"target":34962
		}
	],
	"samplers":[
		{
			"magFilter":9729,
			"minFilter":9987,
			"wrapS":33071,
			"wrapT":33071
		}
	],
	"buffers":[
		{
			"byteLength":3094708,
			"uri":"data:application/octet-stream;base64,"
		}
	]
}
